<svg width="63" height="67" viewBox="0 0 63 67" fill="none" xmlns="http://www.w3.org/2000/svg">
<g filter="url(#filter0_d_616_5115)">
<rect x="4" width="41" height="41" rx="10" fill="white"/>
</g>
<path d="M16.6683 19.0251C16.6491 19.3676 16.8408 19.6868 17.1525 19.8301L23.4058 22.6984L26.2741 28.9509C26.4108 29.2476 26.7075 29.4368 27.0316 29.4368L27.0791 29.4351C27.2464 29.4257 27.4069 29.3662 27.5398 29.2642C27.6727 29.1622 27.7718 29.0226 27.8241 28.8634L32.4866 14.6701C32.5841 14.3718 32.5058 14.0426 32.2841 13.8201C32.0625 13.5976 31.7341 13.5218 31.4341 13.6176L17.24 18.2801C17.0808 18.3324 16.9412 18.4315 16.8392 18.5644C16.7372 18.6973 16.6777 18.8578 16.6683 19.0251ZM30.3883 15.7159L26.9033 26.3243L24.7916 21.7226C24.7086 21.5412 24.5631 21.3956 24.3816 21.3126L19.7783 19.2009L30.3883 15.7159Z" fill="#4453AD"/>
<defs>
<filter id="filter0_d_616_5115" x="0" y="0" width="63" height="67" filterUnits="userSpaceOnUse" color-interpolation-filters="sRGB">
<feFlood flood-opacity="0" result="BackgroundImageFix"/>
<feColorMatrix in="SourceAlpha" type="matrix" values="0 0 0 0 0 0 0 0 0 0 0 0 0 0 0 0 0 0 127 0" result="hardAlpha"/>
<feMorphology radius="11" operator="erode" in="SourceAlpha" result="effect1_dropShadow_616_5115"/>
<feOffset dx="7" dy="15"/>
<feGaussianBlur stdDeviation="11"/>
<feComposite in2="hardAlpha" operator="out"/>
<feColorMatrix type="matrix" values="0 0 0 0 0.198594 0 0 0 0 0.307254 0 0 0 0 0.5125 0 0 0 0.17 0"/>
<feBlend mode="normal" in2="BackgroundImageFix" result="effect1_dropShadow_616_5115"/>
<feBlend mode="normal" in="SourceGraphic" in2="effect1_dropShadow_616_5115" result="shape"/>
</filter>
</defs>
</svg>
