<svg width="17" height="17" viewBox="0 0 17 17" fill="none" xmlns="http://www.w3.org/2000/svg">
<path d="M0.668308 6.02509C0.649141 6.36759 0.840807 6.68676 1.15247 6.83009L7.40581 9.69842L10.2741 15.9509C10.4108 16.2476 10.7075 16.4368 11.0316 16.4368L11.0791 16.4351C11.2464 16.4257 11.4069 16.3662 11.5398 16.2642C11.6727 16.1622 11.7718 16.0226 11.8241 15.8634L16.4866 1.67009C16.5841 1.37176 16.5058 1.04259 16.2841 0.82009C16.0625 0.59759 15.7341 0.521756 15.4341 0.61759L1.23997 5.28009C1.08085 5.33243 0.941188 5.4315 0.839212 5.5644C0.737236 5.6973 0.677678 5.85784 0.668308 6.02509ZM14.3883 2.71592L10.9033 13.3243L8.79164 8.72259C8.70858 8.54117 8.56307 8.39565 8.38164 8.31259L3.77831 6.20092L14.3883 2.71592Z" fill="#4453AD"/>
</svg>
