<svg width="26" height="22" viewBox="0 0 26 22" fill="none" xmlns="http://www.w3.org/2000/svg">
<path d="M25.7282 7.55764L19.228 1.05751C18.8653 0.694931 18.2774 0.695039 17.9148 1.05773C17.7408 1.23184 17.643 1.46787 17.6429 1.71407V4.49983H11.1428C10.6299 4.49983 10.2142 4.91557 10.2142 5.42844C10.2142 5.9413 10.6299 6.35704 11.1428 6.35704H18.5715C19.0844 6.35704 19.5001 5.9413 19.5001 5.42844V3.95563L23.7586 8.21414L19.5001 12.4727V10.9999C19.5001 10.487 19.0844 10.0713 18.5715 10.0713H8.35704V7.28553C8.35693 6.77267 7.94108 6.35704 7.42827 6.35715C7.18213 6.3572 6.94604 6.45498 6.77193 6.62903L0.271867 13.1292C-0.0906629 13.4918 -0.0906629 14.0796 0.271867 14.4422L6.77199 20.9423C6.9461 21.1164 7.18223 21.2143 7.42849 21.2144C7.55053 21.2148 7.67148 21.1908 7.78411 21.1438C8.13102 21 8.35715 20.6614 8.35704 20.2858V17.5H14.8572C15.37 17.5 15.7858 17.0843 15.7858 16.5714C15.7858 16.0586 15.37 15.6428 14.8572 15.6428H7.42849C6.91563 15.6428 6.49989 16.0586 6.49989 16.5714V18.0442L2.24138 13.7857L6.49989 9.52715V10.9999C6.49989 11.5128 6.91563 11.9285 7.42849 11.9285H17.6429V14.7143C17.643 15.2271 18.0589 15.6428 18.5717 15.6426C18.8178 15.6426 19.0539 15.5448 19.228 15.3708L25.7282 8.87064C26.0906 8.508 26.0906 7.92022 25.7282 7.55764Z" fill="white" fill-opacity="0.6"/>
</svg>
