<svg width="41" height="41" viewBox="0 0 41 41" fill="none" xmlns="http://www.w3.org/2000/svg">
<g clip-path="url(#clip0_734_4240)">
<g filter="url(#filter0_d_734_4240)">
<rect width="41" height="41" rx="10" fill="white"/>
</g>
<path d="M13.0013 18.4482C12.9821 18.7907 13.1738 19.1099 13.4855 19.2532L19.7388 22.1215L22.6071 28.374C22.7438 28.6707 23.0405 28.8599 23.3646 28.8599L23.4121 28.8582C23.5794 28.8488 23.7399 28.7893 23.8728 28.6873C24.0057 28.5853 24.1048 28.4456 24.1571 28.2865L28.8196 14.0932C28.9171 13.7949 28.8388 13.4657 28.6171 13.2432C28.3955 13.0207 28.0672 12.9449 27.7671 13.0407L13.573 17.7032C13.4139 17.7555 13.2742 17.8546 13.1722 17.9875C13.0702 18.1204 13.0107 18.2809 13.0013 18.4482ZM26.7213 15.139L23.2363 25.7474L21.1246 21.1457C21.0416 20.9643 20.8961 20.8187 20.7146 20.7357L16.1113 18.624L26.7213 15.139Z" fill="#4453AD"/>
</g>
<defs>
<filter id="filter0_d_734_4240" x="0" y="0" width="55" height="69" filterUnits="userSpaceOnUse" color-interpolation-filters="sRGB">
<feFlood flood-opacity="0" result="BackgroundImageFix"/>
<feColorMatrix in="SourceAlpha" type="matrix" values="0 0 0 0 0 0 0 0 0 0 0 0 0 0 0 0 0 0 127 0" result="hardAlpha"/>
<feMorphology radius="15" operator="erode" in="SourceAlpha" result="effect1_dropShadow_734_4240"/>
<feOffset dx="7" dy="21"/>
<feGaussianBlur stdDeviation="11"/>
<feComposite in2="hardAlpha" operator="out"/>
<feColorMatrix type="matrix" values="0 0 0 0 0.198594 0 0 0 0 0.307254 0 0 0 0 0.5125 0 0 0 0.17 0"/>
<feBlend mode="normal" in2="BackgroundImageFix" result="effect1_dropShadow_734_4240"/>
<feBlend mode="normal" in="SourceGraphic" in2="effect1_dropShadow_734_4240" result="shape"/>
</filter>
<clipPath id="clip0_734_4240">
<rect width="41" height="41" fill="white"/>
</clipPath>
</defs>
</svg>
