<svg width="27" height="27" viewBox="0 0 27 27" fill="none" xmlns="http://www.w3.org/2000/svg">
    <path d="M23.4141 20.8828H5.27344V4.42969C5.27344 4.31367 5.17852 4.21875 5.0625 4.21875H3.58594C3.46992 4.21875 3.375 4.31367 3.375 4.42969V22.5703C3.375 22.6863 3.46992 22.7812 3.58594 22.7812H23.4141C23.5301 22.7812 23.625 22.6863 23.625 22.5703V21.0938C23.625 20.9777 23.5301 20.8828 23.4141 20.8828ZM7.59375 18.7734H9.07031C9.18633 18.7734 9.28125 18.6785 9.28125 18.5625V14.7656C9.28125 14.6496 9.18633 14.5547 9.07031 14.5547H7.59375C7.47773 14.5547 7.38281 14.6496 7.38281 14.7656V18.5625C7.38281 18.6785 7.47773 18.7734 7.59375 18.7734ZM11.6016 18.7734H13.0781C13.1941 18.7734 13.2891 18.6785 13.2891 18.5625V10.125C13.2891 10.009 13.1941 9.91406 13.0781 9.91406H11.6016C11.4855 9.91406 11.3906 10.009 11.3906 10.125V18.5625C11.3906 18.6785 11.4855 18.7734 11.6016 18.7734ZM15.6094 18.7734H17.0859C17.202 18.7734 17.2969 18.6785 17.2969 18.5625V12.1816C17.2969 12.0656 17.202 11.9707 17.0859 11.9707H15.6094C15.4934 11.9707 15.3984 12.0656 15.3984 12.1816V18.5625C15.3984 18.6785 15.4934 18.7734 15.6094 18.7734ZM19.6172 18.7734H21.0938C21.2098 18.7734 21.3047 18.6785 21.3047 18.5625V8.01562C21.3047 7.89961 21.2098 7.80469 21.0938 7.80469H19.6172C19.5012 7.80469 19.4062 7.89961 19.4062 8.01562V18.5625C19.4062 18.6785 19.5012 18.7734 19.6172 18.7734Z" fill="none"/>
</svg>
