<svg width="20" height="20" viewBox="0 0 20 20" fill="none" xmlns="http://www.w3.org/2000/svg">
    <path d="M6.66406 3.33332V13.3333C6.66406 13.7754 6.83966 14.1993 7.15222 14.5118C7.46478 14.8244 7.8887 15 8.33073 15H14.9974C15.4394 15 15.8633 14.8244 16.1759 14.5118C16.4885 14.1993 16.6641 13.7754 16.6641 13.3333V6.03499C16.664 5.81296 16.6196 5.59317 16.5335 5.38853C16.4473 5.18389 16.3212 4.99852 16.1624 4.84332L13.3999 2.14166C13.0885 1.8372 12.6704 1.66671 12.2349 1.66666H8.33073C7.8887 1.66666 7.46478 1.84225 7.15222 2.15481C6.83966 2.46737 6.66406 2.8913 6.66406 3.33332V3.33332Z" stroke="#4453AD" stroke-width="2" stroke-linecap="round" stroke-linejoin="round"/>
    <path d="M13.332 15V16.6666C13.332 17.1087 13.1564 17.5326 12.8439 17.8452C12.5313 18.1577 12.1074 18.3333 11.6654 18.3333H4.9987C4.55667 18.3333 4.13275 18.1577 3.82019 17.8452C3.50763 17.5326 3.33203 17.1087 3.33203 16.6666V7.49998C3.33203 7.05795 3.50763 6.63403 3.82019 6.32147C4.13275 6.00891 4.55667 5.83331 4.9987 5.83331H6.66536" stroke="#4453AD" stroke-width="2" stroke-linecap="round" stroke-linejoin="round"/>
</svg>
