<svg width="18" height="18" viewBox="0 0 18 18" fill="none" xmlns="http://www.w3.org/2000/svg">
<path d="M1 16.1577V7.73664C1 7.5133 1.08872 7.2991 1.24665 7.14118C1.40457 6.98325 1.61877 6.89453 1.84211 6.89453H6.05263C6.27597 6.89453 6.49016 6.98325 6.64809 7.14118C6.80602 7.2991 6.89474 7.5133 6.89474 7.73664V10.263C6.89474 10.4863 6.98346 10.7005 7.14138 10.8584C7.29931 11.0163 7.5135 11.1051 7.73684 11.1051H10.2632C10.4865 11.1051 10.7007 11.1938 10.8586 11.3517C11.0165 11.5096 11.1053 11.7238 11.1053 11.9472V16.1577C11.1053 16.381 11.0165 16.5952 10.8586 16.7531C10.7007 16.9111 10.4865 16.9998 10.2632 16.9998H1.84211C1.61877 16.9998 1.40457 16.9111 1.24665 16.7531C1.08872 16.5952 1 16.381 1 16.1577Z" stroke="#4453AD" stroke-width="2" stroke-linecap="round" stroke-linejoin="round"/>
<path d="M6.89471 10.2632V1.84211C6.89471 1.61877 6.98344 1.40457 7.14136 1.24665C7.29929 1.08872 7.51348 1 7.73682 1H16.1579C16.3812 1 16.5954 1.08872 16.7533 1.24665C16.9113 1.40457 17 1.61877 17 1.84211V10.2632C17 10.4865 16.9113 10.7007 16.7533 10.8586C16.5954 11.0165 16.3812 11.1053 16.1579 11.1053H7.73682C7.51348 11.1053 7.29929 11.0165 7.14136 10.8586C6.98344 10.7007 6.89471 10.4865 6.89471 10.2632Z" stroke="#4453AD" stroke-width="2" stroke-linecap="round" stroke-linejoin="round"/>
</svg>
