<svg width="94" height="20" viewBox="0 0 94 20" fill="none" xmlns="http://www.w3.org/2000/svg">
<path d="M11.4794 18.8135V15.0621H4.38587V11.6858H9.77398V7.93439H4.38587V4.68317H11.1334V0.931763H0.0605469V18.8135H11.4794Z" fill="white"/>
<path d="M12.9431 15.1871C12.9431 16.3125 13.3385 17.2379 14.1047 17.9882C14.8709 18.7384 15.8843 19.1136 17.0954 19.1136C18.5783 19.1136 20.0613 18.4133 20.8769 17.2379H20.9264L20.8769 18.0382V18.8135H24.7821V10.8855C24.7821 7.60927 22.6318 5.63353 19.0974 5.63353C18.1087 5.63353 17.0954 5.80859 16.082 6.13371C15.0686 6.45884 14.2777 6.85899 13.7092 7.30915L15.1922 10.3603C16.4033 9.53499 17.5897 9.13484 18.7019 9.13484C19.913 9.13484 20.5062 9.61002 20.5062 10.5604V10.7855H20.1354C18.43 10.7855 16.8482 11.0606 15.3652 11.6858C13.907 12.311 12.9431 13.5615 12.9431 15.1871ZM17.1695 14.787C17.1695 13.7116 18.5783 13.2614 20.1602 13.2614H20.5556V13.6115C20.5556 14.1617 20.3332 14.6869 19.913 15.1621C19.4928 15.6373 18.9738 15.8874 18.3806 15.8874C17.6144 15.8874 17.1695 15.4122 17.1695 14.787Z" fill="white"/>
<path d="M31.7702 18.8135V13.8116C31.7702 11.3857 32.9813 9.93514 35.2799 9.93514C35.7 9.93514 35.9966 9.96015 36.1449 10.0102V5.75857C35.9472 5.73356 35.7742 5.70855 35.6506 5.70855C33.7969 5.70855 32.1656 7.10908 31.5972 8.90975H31.5477L31.5972 8.10945V5.93364H27.4943V18.8135H31.7702Z" fill="white"/>
<path d="M42.2938 18.8135V12.9863C42.2938 11.0105 43.2578 9.56 45.062 9.56C46.0012 9.56 46.4708 10.1352 46.4708 11.2606V18.8135H50.7467V10.4603C50.7467 7.23413 49.2143 5.63353 46.1743 5.63353C44.3453 5.63353 42.9859 6.38381 42.1208 7.85936H42.0714L42.1208 7.05906V5.93364H38.0179V18.8135H42.2938Z" fill="white"/>
<path d="M61.6241 18.8135L65.9495 5.93364H61.4264L59.4738 12.7862C59.3008 13.3614 59.1525 14.0867 59.0042 15.012H58.9548L58.4852 12.7862L56.5079 5.93364H52.0096L56.409 18.8135H61.6241Z" fill="white"/>
<path d="M66.5309 12.361C66.5309 14.1867 67.1488 15.7873 68.4093 17.1128C69.6698 18.4383 71.3752 19.1136 73.5255 19.1136C75.5028 19.1136 77.6037 18.4133 78.9631 17.2379L77.3813 14.2117C76.096 15.0871 74.9344 15.5122 73.8716 15.5122C72.4133 15.5122 71.2022 14.7119 70.9056 13.2114H78.9384C79.0125 12.6111 79.0372 12.161 79.0372 11.8609C79.0372 10.0352 78.5182 8.53461 77.4554 7.38418C76.4173 6.20874 74.9838 5.63353 73.1548 5.63353C71.1528 5.63353 69.5462 6.28377 68.3351 7.55925C67.1241 8.83473 66.5309 10.4353 66.5309 12.361ZM71.0045 10.7354C71.2764 9.45996 71.9684 8.80972 73.0559 8.80972C74.1187 8.80972 74.8108 9.63503 74.8108 10.7354H71.0045Z" fill="white"/>
<path d="M85.547 18.8135V12.9863C85.547 11.0105 86.511 9.56 88.3152 9.56C89.2544 9.56 89.7241 10.1352 89.7241 11.2606V18.8135H93.9999V10.4603C93.9999 7.23413 92.4675 5.63353 89.4275 5.63353C87.5985 5.63353 86.2391 6.38381 85.374 7.85936H85.3246L85.374 7.05906V5.93364H81.2711V18.8135H85.547Z" fill="white"/>
</svg>
