<svg width="28" height="28" viewBox="0 0 28 28" fill="none" xmlns="http://www.w3.org/2000/svg">
<g filter="url(#filter0_bi_1145_2915)">
<rect width="28" height="28" rx="10" fill="#1F265C" fill-opacity="0.24"/>
</g>
<path d="M11.5 6.5H7.33333C7.11232 6.5 6.90036 6.5878 6.74408 6.74408C6.5878 6.90036 6.5 7.11232 6.5 7.33333V11.5C6.5 11.721 6.5878 11.933 6.74408 12.0893C6.90036 12.2455 7.11232 12.3333 7.33333 12.3333H11.5C11.721 12.3333 11.933 12.2455 12.0893 12.0893C12.2455 11.933 12.3333 11.721 12.3333 11.5V7.33333C12.3333 7.11232 12.2455 6.90036 12.0893 6.74408C11.933 6.5878 11.721 6.5 11.5 6.5V6.5ZM11.5 15.6667H7.33333C7.11232 15.6667 6.90036 15.7545 6.74408 15.9107C6.5878 16.067 6.5 16.279 6.5 16.5V20.6667C6.5 20.8877 6.5878 21.0996 6.74408 21.2559C6.90036 21.4122 7.11232 21.5 7.33333 21.5H11.5C11.721 21.5 11.933 21.4122 12.0893 21.2559C12.2455 21.0996 12.3333 20.8877 12.3333 20.6667V16.5C12.3333 16.279 12.2455 16.067 12.0893 15.9107C11.933 15.7545 11.721 15.6667 11.5 15.6667ZM20.6667 6.5H16.5C16.279 6.5 16.067 6.5878 15.9107 6.74408C15.7545 6.90036 15.6667 7.11232 15.6667 7.33333V11.5C15.6667 11.721 15.7545 11.933 15.9107 12.0893C16.067 12.2455 16.279 12.3333 16.5 12.3333H20.6667C20.8877 12.3333 21.0996 12.2455 21.2559 12.0893C21.4122 11.933 21.5 11.721 21.5 11.5V7.33333C21.5 7.11232 21.4122 6.90036 21.2559 6.74408C21.0996 6.5878 20.8877 6.5 20.6667 6.5V6.5ZM20.6667 15.6667H16.5C16.279 15.6667 16.067 15.7545 15.9107 15.9107C15.7545 16.067 15.6667 16.279 15.6667 16.5V20.6667C15.6667 20.8877 15.7545 21.0996 15.9107 21.2559C16.067 21.4122 16.279 21.5 16.5 21.5H20.6667C20.8877 21.5 21.0996 21.4122 21.2559 21.2559C21.4122 21.0996 21.5 20.8877 21.5 20.6667V16.5C21.5 16.279 21.4122 16.067 21.2559 15.9107C21.0996 15.7545 20.8877 15.6667 20.6667 15.6667Z" stroke="#4453AD" stroke-width="2" stroke-linejoin="round"/>
<defs>
<filter id="filter0_bi_1145_2915" x="-35" y="-35" width="98" height="98" filterUnits="userSpaceOnUse" color-interpolation-filters="sRGB">
<feFlood flood-opacity="0" result="BackgroundImageFix"/>
<feGaussianBlur in="BackgroundImage" stdDeviation="17.5"/>
<feComposite in2="SourceAlpha" operator="in" result="effect1_backgroundBlur_1145_2915"/>
<feBlend mode="normal" in="SourceGraphic" in2="effect1_backgroundBlur_1145_2915" result="shape"/>
<feColorMatrix in="SourceAlpha" type="matrix" values="0 0 0 0 0 0 0 0 0 0 0 0 0 0 0 0 0 0 127 0" result="hardAlpha"/>
<feOffset dx="2" dy="2"/>
<feGaussianBlur stdDeviation="2"/>
<feComposite in2="hardAlpha" operator="arithmetic" k2="-1" k3="1"/>
<feColorMatrix type="matrix" values="0 0 0 0 1 0 0 0 0 1 0 0 0 0 1 0 0 0 0.1 0"/>
<feBlend mode="normal" in2="shape" result="effect2_innerShadow_1145_2915"/>
</filter>
</defs>
</svg>
