<svg width="26" height="27" viewBox="0 0 26 27" fill="none" xmlns="http://www.w3.org/2000/svg">
<g clip-path="url(#clip0)">
<path d="M6.86179 19.885L6.81743 19.9902L6.90698 20.061L9.50899 22.1177L9.66358 22.2399L9.7402 22.0583L10.1382 21.1153L10.1826 21.0101L10.093 20.9393L7.49081 18.8823L7.33617 18.7601L7.25958 18.9417L6.86179 19.885Z" fill="#D7D7D7" stroke="#D7D7D7" stroke-width="0.3"/>
<path d="M6.90696 6.94022L6.81745 7.011L6.86178 7.11615L7.259 8.05827L7.33559 8.23994L7.49025 8.11767L10.093 6.05979L10.1826 5.98899L10.1382 5.88382L9.74079 4.9417L9.66417 4.76007L9.50954 4.88234L6.90696 6.94022Z" fill="#D7D7D7" stroke="#D7D7D7" stroke-width="0.3"/>
<path d="M15.8618 5.88382L15.8174 5.98899L15.907 6.05979L18.5098 8.11767L18.6644 8.23993L18.741 8.05829L19.1382 7.11645L19.1826 7.0113L19.093 6.94051L16.4905 4.88234L16.3358 4.76006L16.2592 4.9417L15.8618 5.88382Z" fill="#D7D7D7" stroke="#D7D7D7" stroke-width="0.3"/>
<path d="M21 11.85H20.85V12V15V15.15H21H22H22.15V15V12V11.85H22H21Z" fill="#D7D7D7" stroke="#D7D7D7" stroke-width="0.3"/>
<path d="M13.0001 19.85C11.2631 19.85 9.85 21.2631 9.85 22.9999C9.85 24.7371 11.2631 26.15 13.0001 26.15C14.7371 26.15 16.15 24.7371 16.15 22.9999C16.15 21.2631 14.7371 19.85 13.0001 19.85ZM13.0001 25.0753C11.8559 25.0753 10.9247 24.1441 10.9247 22.9999C10.9247 21.8559 11.8559 20.9247 13.0001 20.9247C14.1443 20.9247 15.0753 21.8559 15.0753 22.9999C15.0753 24.1441 14.1443 25.0753 13.0001 25.0753Z" fill="#D7D7D7" stroke="#D7D7D7" stroke-width="0.3"/>
<path d="M13.0001 7.15C14.7371 7.15 16.15 5.73693 16.15 4.0001C16.15 2.26287 14.7371 0.85 13.0001 0.85C11.2631 0.85 9.85 2.26286 9.85 4.0001C9.85 5.73694 11.2631 7.15 13.0001 7.15ZM13.0001 1.92474C14.1443 1.92474 15.0753 2.85585 15.0753 4.0001C15.0753 5.14414 14.1443 6.07526 13.0001 6.07526C11.8559 6.07526 10.9247 5.14412 10.9247 4.0001C10.9247 2.85587 11.8559 1.92474 13.0001 1.92474Z" fill="#D7D7D7" stroke="#D7D7D7" stroke-width="0.3"/>
<path d="M13.0001 16.15C14.7371 16.15 16.15 14.7371 16.15 13.0001C16.15 11.2631 14.7371 9.85 13.0001 9.85C11.2631 9.85 9.85 11.2631 9.85 13.0001C9.85 14.7371 11.2631 16.15 13.0001 16.15ZM13.0001 10.9247C14.1443 10.9247 15.0753 11.8559 15.0753 12.9999C15.0753 14.1441 14.1443 15.0753 13.0001 15.0753C11.8559 15.0753 10.9247 14.1441 10.9247 12.9999C10.9247 11.8559 11.8559 10.9247 13.0001 10.9247Z" fill="#D7D7D7" stroke="#D7D7D7" stroke-width="0.3"/>
<path d="M21.9999 12.15C23.7369 12.15 25.15 10.7371 25.15 8.9999C25.15 7.26285 23.7369 5.85 21.9999 5.85C20.2629 5.85 18.85 7.26286 18.85 8.9999C18.85 10.7371 20.2629 12.15 21.9999 12.15ZM21.9999 6.92474C23.1441 6.92474 24.0753 7.85588 24.0753 8.9999C24.0753 10.1441 23.1441 11.0753 21.9999 11.0753C20.8559 11.0753 19.9247 10.1441 19.9247 8.9999C19.9247 7.85587 20.8559 6.92474 21.9999 6.92474Z" fill="#D7D7D7" stroke="#D7D7D7" stroke-width="0.3"/>
<path d="M21.9999 14.85C20.2629 14.85 18.85 16.2629 18.85 18C18.85 19.7371 20.2629 21.15 21.9999 21.15C23.7369 21.15 25.15 19.7371 25.15 18C25.15 16.2629 23.7369 14.85 21.9999 14.85ZM21.9999 20.0754C20.8559 20.0754 19.9247 19.1443 19.9247 18C19.9247 16.8559 20.8559 15.9248 21.9999 15.9248C23.1441 15.9248 24.0753 16.8559 24.0753 18C24.0753 19.1443 23.1441 20.0754 21.9999 20.0754Z" fill="#D7D7D7" stroke="#D7D7D7" stroke-width="0.3"/>
<path d="M4.0001 12.15C5.73693 12.15 7.15 10.7371 7.15 8.9999C7.15 7.26286 5.73693 5.85 4.0001 5.85C2.26287 5.85 0.85 7.26286 0.85 8.9999C0.85 10.7371 2.26286 12.15 4.0001 12.15ZM4.0001 6.92474C5.14413 6.92474 6.07526 7.85587 6.07526 8.9999C6.07526 10.1441 5.14412 11.0753 4.0001 11.0753C2.85587 11.0753 1.92474 10.1441 1.92474 8.9999C1.92474 7.85588 2.85586 6.92474 4.0001 6.92474Z" fill="#D7D7D7" stroke="#D7D7D7" stroke-width="0.3"/>
<path d="M4.0001 14.85C2.26287 14.85 0.85 16.2629 0.85 18C0.85 19.7371 2.26287 21.15 4.0001 21.15C5.73693 21.15 7.15 19.7371 7.15 18C7.15 16.2629 5.73693 14.85 4.0001 14.85ZM4.0001 20.0754C2.85587 20.0754 1.92474 19.1443 1.92474 18C1.92474 16.8559 2.85586 15.9248 4.0001 15.9248C5.14413 15.9248 6.07526 16.8559 6.07526 18C6.07526 19.1443 5.14412 20.0754 4.0001 20.0754Z" fill="#D7D7D7" stroke="#D7D7D7" stroke-width="0.3"/>
<path d="M13.5 10V7H13H12.5V10H13H13.5Z" fill="#D7D7D7" stroke="#D7D7D7"/>
<path d="M6.90689 15.9438L6.81742 16.0146L6.86182 16.1197L7.2583 17.0584L7.33502 17.24L7.48959 17.1176L10.0931 15.0562L10.1826 14.9854L10.1382 14.8803L9.7417 13.9416L9.66498 13.76L9.51041 13.8824L6.90689 15.9438Z" fill="#D7D7D7" stroke="#D7D7D7" stroke-width="0.3"/>
<path d="M15.8618 14.8801L15.8174 14.9852L15.9069 15.056L18.5102 17.1176L18.6648 17.24L18.7415 17.0584L19.1382 16.1199L19.1826 16.0148L19.0931 15.944L16.4898 13.8824L16.3352 13.76L16.2585 13.9416L15.8618 14.8801Z" fill="#D7D7D7" stroke="#D7D7D7" stroke-width="0.3"/>
</g>
<defs>
<clipPath id="clip0">
<rect width="26" height="26" fill="white" transform="translate(0 0.5)"/>
</clipPath>
</defs>
</svg>
