<svg width="18" height="18" viewBox="0 0 18 18" fill="none" xmlns="http://www.w3.org/2000/svg">
<path d="M14.7778 8.1111L13.4444 9.44443L8.55554 4.55554L9.88888 3.22221C10.5555 2.55554 13 1.44443 14.7778 3.22221C16.5555 4.99999 15.4444 7.44443 14.7778 8.1111Z" stroke="#4453AD" stroke-width="2" stroke-linecap="round" stroke-linejoin="round"/>
<path d="M17 1L14.7778 3.22222" stroke="#4453AD" stroke-width="2" stroke-linecap="round" stroke-linejoin="round"/>
<path d="M3.22221 9.88875L4.55554 8.55542L9.44443 13.4443L8.1111 14.7776C7.44443 15.4443 4.99998 16.5554 3.22221 14.7776C1.44443 12.9999 2.55554 10.5554 3.22221 9.88875Z" stroke="#4453AD" stroke-width="2" stroke-linecap="round" stroke-linejoin="round"/>
<path d="M5.44444 9.44453L7.22222 7.66675M8.55556 12.5556L10.3333 10.7779L8.55556 12.5556ZM1 17.0001L3.22222 14.7779L1 17.0001Z" stroke="#4453AD" stroke-width="2" stroke-linecap="round" stroke-linejoin="round"/>
</svg>
