<svg width="103" height="19" viewBox="0 0 103 19" fill="none" xmlns="http://www.w3.org/2000/svg">
<path d="M12.5202 18.6864V14.7662H4.7425V11.238H10.6503V7.31774H4.7425V3.92022H12.1408V0H0V18.6864H12.5202Z" fill="#888888"/>
<path d="M14.125 14.8968C14.125 16.0729 14.5586 17.0399 15.3987 17.8239C16.2388 18.608 17.3499 19 18.6778 19C20.3038 19 21.9298 18.2682 22.8242 17.0399H22.8784L22.8242 17.8762V18.6864H27.106V10.4017C27.106 6.97799 24.7483 4.91334 20.8729 4.91334C19.7889 4.91334 18.6778 5.09629 17.5667 5.43604C16.4556 5.77579 15.5884 6.19395 14.9651 6.66437L16.5911 9.85282C17.919 8.99037 19.2198 8.57221 20.4393 8.57221C21.7673 8.57221 22.4177 9.06878 22.4177 10.0619V10.2971H22.0112C20.1412 10.2971 18.4068 10.5846 16.7808 11.238C15.1819 11.8913 14.125 13.1981 14.125 14.8968ZM18.7591 14.4787C18.7591 13.3549 20.3038 12.8845 22.0382 12.8845H22.4718V13.2503C22.4718 13.8253 22.228 14.3741 21.7673 14.8707C21.3065 15.3673 20.7374 15.6286 20.087 15.6286C19.2469 15.6286 18.7591 15.132 18.7591 14.4787Z" fill="#888888"/>
<path d="M34.7681 18.6864V13.4594C34.7681 10.9243 36.096 9.40853 38.6163 9.40853C39.077 9.40853 39.4022 9.43466 39.5648 9.48693V5.04402C39.348 5.01788 39.1583 4.99175 39.0228 4.99175C36.9903 4.99175 35.2017 6.4553 34.5784 8.337H34.5242L34.5784 7.50069V5.22696H30.0798V18.6864H34.7681Z" fill="#888888"/>
<path d="M46.3067 18.6864V12.597C46.3067 10.5323 47.3636 9.01651 49.3419 9.01651C50.3717 9.01651 50.8867 9.61761 50.8867 10.7937V18.6864H55.575V9.95736C55.575 6.58597 53.8948 4.91334 50.5615 4.91334C48.556 4.91334 47.0655 5.69739 46.117 7.23934H46.0628L46.117 6.40303V5.22696H41.6184V18.6864H46.3067Z" fill="#888888"/>
<path d="M67.5015 18.6864L72.244 5.22696H67.2847L65.1438 12.3879C64.9541 12.989 64.7915 13.7469 64.6289 14.7139H64.5747L64.0598 12.3879L61.8918 5.22696H56.9596L61.7834 18.6864H67.5015Z" fill="#888888"/>
<path d="M72.8815 11.9436C72.8815 13.8514 73.559 15.5241 74.9411 16.9092C76.3232 18.2944 78.1931 19 80.5508 19C82.7188 19 85.0223 18.2682 86.5128 17.0399L84.7784 13.8776C83.3692 14.7923 82.0955 15.2366 80.9302 15.2366C79.3313 15.2366 78.0034 14.4003 77.6782 12.8322H86.4857C86.567 12.205 86.5941 11.7345 86.5941 11.4209C86.5941 9.51307 86.025 7.94498 84.8597 6.74278C83.7215 5.51444 82.1497 4.91334 80.1443 4.91334C77.9492 4.91334 76.1877 5.59285 74.8598 6.92572C73.5319 8.2586 72.8815 9.93122 72.8815 11.9436ZM77.7866 10.2448C78.0847 8.91197 78.8435 8.23246 80.0359 8.23246C81.2012 8.23246 81.96 9.09491 81.96 10.2448H77.7866Z" fill="#888888"/>
<path d="M93.7318 18.6864V12.597C93.7318 10.5323 94.7887 9.01651 96.767 9.01651C97.7968 9.01651 98.3117 9.61761 98.3117 10.7937V18.6864H103V9.95736C103 6.58597 101.32 4.91334 97.9865 4.91334C95.9811 4.91334 94.4906 5.69739 93.5421 7.23934H93.4879L93.5421 6.40303V5.22696H89.0435V18.6864H93.7318Z" fill="#888888"/>
</svg>
