<svg width="27" height="27" viewBox="0 0 27 27" fill="none" xmlns="http://www.w3.org/2000/svg">
<path d="M13.5 26C20.4037 26 26 20.4037 26 13.5C26 6.59625 20.4037 1 13.5 1C6.59625 1 1 6.59625 1 13.5C1 20.4037 6.59625 26 13.5 26Z" stroke="#EC3D3D" stroke-width="2" stroke-linejoin="round"/>
<path d="M13.0977 16.208C12.5765 16.208 12.1425 15.8078 12.1034 15.2881C12.0773 14.941 12.0511 14.5814 12.025 14.2095C11.975 13.4979 11.925 12.7938 11.875 12.0974C11.825 11.3858 11.7833 10.712 11.75 10.0761C11.7167 9.42508 11.6833 8.84974 11.65 8.35011C11.6333 7.85047 11.625 7.44925 11.625 7.14644V6.375C11.625 5.82272 12.0727 5.375 12.625 5.375H13.75C14.3023 5.375 14.75 5.82272 14.75 6.375V7.14644C14.75 7.44925 14.7417 7.85047 14.725 8.35011C14.7083 8.84974 14.675 9.42508 14.625 10.0761C14.5917 10.712 14.55 11.3858 14.5 12.0974C14.45 12.7938 14.4 13.4979 14.35 14.2095C14.3239 14.5814 14.2977 14.941 14.2716 15.2881C14.2325 15.8078 13.7985 16.208 13.2773 16.208H13.0977ZM12.7 21C12.1477 21 11.7 20.5523 11.7 20V19.3883C11.7 18.836 12.1477 18.3883 12.7 18.3883H13.7C14.2523 18.3883 14.7 18.836 14.7 19.3883V20C14.7 20.5523 14.2523 21 13.7 21H12.7Z" fill="#EC3D3D"/>
</svg>
