<svg width="19" height="22" viewBox="0 0 19 22" fill="none" xmlns="http://www.w3.org/2000/svg">
    <path d="M7.39961 0.600098C5.59158 0.600098 3.96469 1.19528 2.80742 2.3501C1.65015 3.50492 0.998047 5.18893 0.998047 7.20635C0.998047 11.4398 3.39961 16.4221 3.39961 20.6001C3.39811 20.7061 3.41769 20.8114 3.45723 20.9097C3.49676 21.0081 3.55545 21.0976 3.62988 21.1731C3.70432 21.2486 3.79301 21.3086 3.89082 21.3495C3.98863 21.3904 4.09359 21.4115 4.19961 21.4115C4.30563 21.4115 4.41059 21.3904 4.5084 21.3495C4.6062 21.3086 4.6949 21.2486 4.76934 21.1731C4.84377 21.0976 4.90246 21.0081 4.94199 20.9097C4.98152 20.8114 5.00111 20.7061 4.99961 20.6001C4.99961 15.8485 2.59805 10.7841 2.59805 7.20635C2.59805 5.52457 3.11218 4.30453 3.93711 3.48135C4.76204 2.65817 5.93484 2.2001 7.39961 2.2001C9.86523 2.2001 11.2041 3.11802 12.009 4.01885C12.8139 4.91968 13.0246 5.76572 13.0246 5.76572C13.0539 5.88316 13.1095 5.9924 13.1872 6.08524C13.2649 6.17807 13.3626 6.25207 13.473 6.30166C13.473 6.30166 13.9979 6.56326 14.3309 7.03135C13.5166 7.15315 12.8319 7.63239 12.3527 8.28291C12.2922 8.19885 12.268 8.0976 12.198 8.01885C11.6514 7.4039 10.7996 7.0001 9.79961 7.0001C8.79961 7.0001 7.94779 7.4039 7.40117 8.01885C6.85455 8.63379 6.59961 9.42232 6.59961 10.2001C6.59961 10.9779 6.85455 11.7664 7.40117 12.3813C7.94779 12.9963 8.79961 13.4001 9.79961 13.4001C10.7996 13.4001 11.6514 12.9963 12.198 12.3813C12.4385 12.1108 12.6 11.7972 12.7309 11.4751C13.4056 11.987 14.1855 12.4182 15.0621 12.9235C15.0982 12.9436 15.1358 12.9608 15.1746 12.9751C15.2082 13.0129 15.2454 13.0474 15.2855 13.0782C15.2855 13.0782 16.9996 14.4987 16.9996 16.2688C16.9996 16.6194 16.9409 17.0021 16.8496 17.1876C16.7583 17.3731 16.7904 17.4001 16.4824 17.4001C16.3547 17.4001 16.252 17.3901 16.1621 17.3767C16.1835 17.1466 16.1934 16.9296 16.1934 16.7892C16.1934 16.0065 15.8309 15.4204 15.8309 15.4204C15.7827 15.325 15.7159 15.2401 15.6344 15.1709C15.5529 15.1017 15.4584 15.0495 15.3564 15.0175C15.2544 14.9854 15.147 14.9742 15.0405 14.9843C14.9341 14.9945 14.8308 15.0258 14.7367 15.0766C14.6426 15.1274 14.5596 15.1965 14.4927 15.2798C14.4257 15.3632 14.3762 15.4591 14.3469 15.562C14.3177 15.6648 14.3094 15.7725 14.3224 15.8786C14.3355 15.9847 14.3697 16.0871 14.423 16.1798C14.423 16.1798 14.5934 16.583 14.5934 16.7892C14.5934 17.0492 14.56 17.5201 14.4402 17.8188C14.3205 18.1175 14.3141 18.2001 13.9355 18.2001C13.894 18.2001 13.8942 18.1941 13.8668 18.1923C13.7757 18.1863 13.7132 18.1771 13.6387 18.1657C13.6674 17.9823 13.798 17.7938 13.798 17.6188V17.6173C13.7985 16.2636 13.3246 15.397 13.3246 15.397C13.2519 15.2681 13.145 15.162 13.0156 15.0902C12.8863 15.0185 12.7396 14.9841 12.5918 14.9907C12.4532 14.9968 12.3185 15.0389 12.201 15.1127C12.0836 15.1866 11.9873 15.2897 11.9218 15.412C11.8562 15.5343 11.8236 15.6716 11.8271 15.8103C11.8306 15.949 11.8701 16.0844 11.9418 16.2032C11.9418 16.2032 12.1987 16.5912 12.198 17.6173C12.198 17.8937 12.0939 18.3262 11.9168 18.6017C11.7397 18.8771 11.5872 19.0001 11.2621 19.0001C10.8148 19.0001 10.6485 18.9362 10.5949 18.9173C10.5972 18.907 10.5985 18.9191 10.6012 18.9032C10.6269 18.7519 10.7341 18.4622 10.8574 18.1438C10.9808 17.8255 11.1387 17.4869 11.1387 17.0095C11.1387 16.5461 10.9365 16.0837 10.634 15.786C10.3315 15.4884 9.97181 15.3307 9.61211 15.2251C8.89271 15.0138 8.11226 15.0001 7.39961 15.0001C7.2936 14.9986 7.18835 15.0182 7.08997 15.0577C6.9916 15.0972 6.90206 15.1559 6.82657 15.2304C6.75107 15.3048 6.69112 15.3935 6.6502 15.4913C6.60929 15.5891 6.58821 15.6941 6.58821 15.8001C6.58821 15.9061 6.60929 16.0111 6.6502 16.1089C6.69112 16.2067 6.75107 16.2954 6.82657 16.3698C6.90206 16.4443 6.9916 16.5029 7.08997 16.5425C7.18835 16.582 7.2936 16.6016 7.39961 16.6001C8.06936 16.6001 8.75791 16.6423 9.16211 16.761C9.36421 16.8204 9.47967 16.8947 9.51211 16.9267C9.54455 16.9586 9.53867 16.9241 9.53867 17.0095C9.53867 17.0181 9.48155 17.2696 9.3668 17.5657C9.25204 17.8619 9.09687 18.2095 9.02461 18.6345C8.95234 19.0594 9.02381 19.6989 9.47773 20.1001C9.93167 20.5013 10.5116 20.6001 11.2621 20.6001C12.0138 20.6001 12.5933 20.2014 12.9996 19.7267V20.6001C12.9981 20.7061 13.0177 20.8114 13.0572 20.9097C13.0968 21.0081 13.1554 21.0976 13.2299 21.1731C13.3043 21.2486 13.393 21.3086 13.4908 21.3495C13.5886 21.3904 13.6936 21.4115 13.7996 21.4115C13.9056 21.4115 14.0106 21.3904 14.1084 21.3495C14.2062 21.3086 14.2949 21.2486 14.3693 21.1731C14.4438 21.0976 14.5025 21.0081 14.542 20.9097C14.5815 20.8114 14.6011 20.7061 14.5996 20.6001V19.686C15.0521 19.5278 15.4115 19.2219 15.659 18.8813C15.9006 18.9475 16.1686 19.0001 16.4824 19.0001C17.3121 19.0001 18.0024 18.4693 18.2855 17.8938C18.5687 17.3184 18.5996 16.7367 18.5996 16.2688C18.5996 14.5779 17.7055 13.2749 17.0246 12.5267C17.1556 12.4197 17.2711 12.2974 17.3652 12.1563C17.7533 11.575 17.7996 10.9208 17.7996 10.2001C17.7996 8.99396 17.1363 7.92959 16.1621 7.38604C15.9778 5.94022 14.8856 5.28699 14.4574 5.06416C14.3414 4.70636 14.045 3.89601 13.2012 2.95166C12.1429 1.76729 10.2812 0.600098 7.39961 0.600098ZM9.79961 8.6001C10.3996 8.6001 10.7478 8.79629 11.0012 9.08135C11.2546 9.3664 11.3996 9.77787 11.3996 10.2001C11.3996 10.6223 11.2546 11.0338 11.0012 11.3188C10.7478 11.6039 10.3996 11.8001 9.79961 11.8001C9.19961 11.8001 8.85143 11.6039 8.59805 11.3188C8.34466 11.0338 8.19961 10.6223 8.19961 10.2001C8.19961 9.77787 8.34466 9.3664 8.59805 9.08135C8.85143 8.79629 9.19961 8.6001 9.79961 8.6001ZM14.7387 8.6001C15.5286 8.6001 16.1996 9.28198 16.1996 10.2001C16.1996 10.805 16.1023 11.1664 16.034 11.2688C15.9852 11.3419 15.811 11.361 15.6262 11.3845C15.3776 11.2409 15.2029 11.1302 14.984 11.0001C14.9892 11.0002 14.9944 11.0002 14.9996 11.0001C15.1057 11.0001 15.2074 10.958 15.2825 10.8829C15.3575 10.8079 15.3996 10.7062 15.3996 10.6001C15.3996 10.494 15.3575 10.3923 15.2825 10.3173C15.2074 10.2422 15.1057 10.2001 14.9996 10.2001C14.9293 10.2001 14.8602 10.2187 14.7993 10.254C14.7384 10.2893 14.6879 10.3399 14.6529 10.401C14.6179 10.462 14.5996 10.5311 14.5998 10.6015C14.6 10.6719 14.6188 10.7409 14.6543 10.8017C14.066 10.4435 13.5777 10.1276 13.3824 9.92197C13.5187 9.17185 14.0439 8.6001 14.7387 8.6001ZM10.1996 10.2001C10.0935 10.2001 9.99178 10.2422 9.91677 10.3173C9.84175 10.3923 9.79961 10.494 9.79961 10.6001C9.79961 10.7062 9.84175 10.8079 9.91677 10.8829C9.99178 10.958 10.0935 11.0001 10.1996 11.0001C10.3057 11.0001 10.4074 10.958 10.4825 10.8829C10.5575 10.8079 10.5996 10.7062 10.5996 10.6001C10.5996 10.494 10.5575 10.3923 10.4825 10.3173C10.4074 10.2422 10.3057 10.2001 10.1996 10.2001Z" fill="#4453AD"/>
</svg>
