<svg width="25" height="25" viewBox="0 0 25 25" fill="none" xmlns="http://www.w3.org/2000/svg">
    <path fill-rule="evenodd" clip-rule="evenodd" d="M19.7693 3.323C20.692 2.8811 20.779 2.9026 21.0318 3.32642L22.8772 6.41989C22.9569 6.55344 22.9988 6.70459 22.9988 6.85841V20.1161C22.9988 20.6043 23.047 21 22.5375 21H19.308C18.7984 21 18.8466 20.6043 18.8466 20.1161V13.0453H17.4626C16.953 13.0453 17.0012 12.6496 17.0012 12.1615C17.0012 11.6734 16.953 11.2776 17.4626 11.2776H20.2307C20.7403 11.2776 20.692 11.6734 20.692 12.1615V19.2323H21.1534V9.95188H20.692C20.4056 9.95188 20.1353 9.82443 19.9607 9.60695C19.786 9.38946 19.7267 9.1066 19.8002 8.84138L20.5599 6.09831L19.4295 4.20345C19.1767 3.77963 19.3337 3.53164 19.7693 3.323Z" fill="#4453AD"/>
    <path d="M11 15.2107C11 16.1991 10.3286 17 9.50008 17C8.67158 17 8 16.1991 8 15.2107C8 14.2224 9.50008 12 9.50008 12C9.50008 12 11 14.2224 11 15.2107Z" fill="#4453AD"/>
    <rect x="4" y="3" width="11" height="19" rx="1" stroke="#4453AD" stroke-width="2"/>
</svg>
