<svg width="16" height="16" viewBox="0 0 16 16" fill="none" xmlns="http://www.w3.org/2000/svg">
    <g opacity="0.5">
        <path fill-rule="evenodd" clip-rule="evenodd" d="M12.6522 2.12677C13.2428 1.84395 13.2985 1.85771 13.4602 2.12895L14.6413 4.10877C14.6923 4.19425 14.7191 4.29098 14.7191 4.38943V12.8743C14.7191 13.1868 14.75 13.44 14.4239 13.44H12.357C12.0309 13.44 12.0617 13.1868 12.0617 12.8743V8.34904H11.176C10.8498 8.34904 10.8807 8.09579 10.8807 7.7834C10.8807 7.47102 10.8498 7.21771 11.176 7.21771H12.9475C13.2737 7.21771 13.2428 7.47102 13.2428 7.7834V12.3087H13.5381V6.36925H13.2428C13.0595 6.36925 12.8865 6.28768 12.7747 6.14849C12.6629 6.0093 12.625 5.82827 12.672 5.65853L13.1582 3.90296L12.4348 2.69025C12.273 2.41901 12.3735 2.26029 12.6522 2.12677Z" fill="#1E1E20"/>
        <path d="M7.04012 9.7349C7.04012 10.3675 6.61042 10.8801 6.08017 10.8801C5.54993 10.8801 5.12012 10.3675 5.12012 9.7349C5.12012 9.10239 6.08017 7.68005 6.08017 7.68005C6.08017 7.68005 7.04012 9.10239 7.04012 9.7349Z" fill="#1E1E20"/>
        <path fill-rule="evenodd" clip-rule="evenodd" d="M1.91992 2.56003C1.91992 1.8531 2.493 1.28003 3.19992 1.28003H8.95992C9.66685 1.28003 10.2399 1.8531 10.2399 2.56003V13.44C10.2399 14.147 9.66685 14.72 8.95992 14.72H3.19992C2.493 14.72 1.91992 14.147 1.91992 13.44V2.56003ZM8.95992 2.56003H3.19992V13.44H8.95992V2.56003Z" fill="#1E1E20"/>
    </g>
</svg>
