<svg width="16" height="16" viewBox="0 0 16 16" fill="none" xmlns="http://www.w3.org/2000/svg">
    <g opacity="0.5">
        <path fill-rule="evenodd" clip-rule="evenodd" d="M12.6524 2.12677C13.2429 1.84395 13.2986 1.85771 13.4604 2.12895L14.6414 4.10877C14.6924 4.19425 14.7193 4.29098 14.7193 4.38943V12.8743C14.7193 13.1868 14.7501 13.44 14.424 13.44H12.3571C12.031 13.44 12.0618 13.1868 12.0618 12.8743V8.34904H11.1761C10.8499 8.34904 10.8808 8.09579 10.8808 7.78341C10.8808 7.47102 10.8499 7.21771 11.1761 7.21771H12.9477C13.2738 7.21771 13.2429 7.47102 13.2429 7.78341V12.3087H13.5382V6.36925H13.2429C13.0596 6.36925 12.8866 6.28768 12.7749 6.14849C12.6631 6.0093 12.6251 5.82827 12.6721 5.65853L13.1584 3.90296L12.4349 2.69025C12.2731 2.41901 12.3736 2.26029 12.6524 2.12677Z" fill="white"/>
        <path d="M7.04 9.7349C7.04 10.3675 6.6103 10.8801 6.08005 10.8801C5.54981 10.8801 5.12 10.3675 5.12 9.7349C5.12 9.10239 6.08005 7.68005 6.08005 7.68005C6.08005 7.68005 7.04 9.10239 7.04 9.7349Z" fill="white"/>
        <path fill-rule="evenodd" clip-rule="evenodd" d="M1.91998 2.56003C1.91998 1.8531 2.49306 1.28003 3.19998 1.28003H8.95998C9.66691 1.28003 10.24 1.8531 10.24 2.56003V13.44C10.24 14.147 9.66691 14.72 8.95998 14.72H3.19998C2.49306 14.72 1.91998 14.147 1.91998 13.44V2.56003ZM8.95998 2.56003H3.19998V13.44H8.95998V2.56003Z" fill="white"/>
    </g>
</svg>
