<svg width="26" height="27" viewBox="0 0 26 27" fill="none" xmlns="http://www.w3.org/2000/svg">
<path d="M14.0156 7.50781V13.0793L17.713 16.7767C18.1096 17.1733 18.1096 17.8164 17.713 18.213C17.3163 18.6096 16.6733 18.6096 16.2767 18.213L12.2819 14.2181C12.0914 14.0277 11.9844 13.7693 11.9844 13.5V7.50781C11.9844 6.94688 12.4391 6.49219 13 6.49219C13.5609 6.49219 14.0156 6.94688 14.0156 7.50781ZM16.9948 0.5H9.00519C6.87796 0.5 4.77933 1.2476 3.10014 2.70787V1.51562C3.10014 0.954695 2.64545 0.5 2.08452 0.5C1.52359 0.5 1.06889 0.954695 1.06889 1.51562V5.51043C1.06889 6.07136 1.5275 6.52606 2.08452 6.52606H6.07933C6.64026 6.52606 7.09495 6.07136 7.09495 5.51043C7.09495 4.9495 6.64026 4.49481 6.07933 4.49481H4.15812C5.4436 3.25549 7.17884 2.53125 9.00519 2.53125H16.9948C20.8403 2.53125 23.9688 5.65973 23.9688 9.50519V17.4948C23.9688 21.3403 20.8403 24.4688 16.9948 24.4688H9.00519C5.15973 24.4688 2.03125 21.3403 2.03125 17.4948V13.5C2.03125 12.9391 1.57655 12.4844 1.01562 12.4844C0.454695 12.4844 0 12.9391 0 13.5V17.4948C0 22.4603 4.0397 26.5 9.00519 26.5H16.9948C21.9603 26.5 26 22.4603 26 17.4948V9.50519C26 4.5397 21.9603 0.5 16.9948 0.5V0.5Z" fill="white" fill-opacity="0.6"/>
</svg>
