<svg width="28" height="28" viewBox="0 0 28 28" fill="none" xmlns="http://www.w3.org/2000/svg">
<g filter="url(#filter0_bi_1145_2942)">
<rect width="28" height="28" rx="10" fill="#1F265C" fill-opacity="0.24"/>
</g>
<path d="M10.9481 14.8272C10.9012 14.8272 10.9012 14.8272 10.8535 14.8225C10.3329 14.7677 9.95291 14.2764 10.0047 13.7257L10.5064 7.90193C10.5566 7.39112 10.9637 7 11.4506 7H15.1213C15.2266 7 15.3302 7.01799 15.4297 7.05476C15.9248 7.23467 16.188 7.80415 16.0178 8.32747L14.7923 11.5386H17.0524C17.2194 11.5386 17.3831 11.5855 17.5278 11.6739C17.9802 11.9524 18.1348 12.5657 17.8716 13.0428C17.5311 13.6812 14.1047 19.1569 12.9977 20.924C12.9097 21.0648 12.6843 20.9959 12.6934 20.8325L13.0651 14.8225L10.9489 14.8272H10.9481Z" stroke="#4453AD" stroke-width="2" stroke-linecap="round" stroke-linejoin="round"/>
<defs>
<filter id="filter0_bi_1145_2942" x="-35" y="-35" width="98" height="98" filterUnits="userSpaceOnUse" color-interpolation-filters="sRGB">
<feFlood flood-opacity="0" result="BackgroundImageFix"/>
<feGaussianBlur in="BackgroundImage" stdDeviation="17.5"/>
<feComposite in2="SourceAlpha" operator="in" result="effect1_backgroundBlur_1145_2942"/>
<feBlend mode="normal" in="SourceGraphic" in2="effect1_backgroundBlur_1145_2942" result="shape"/>
<feColorMatrix in="SourceAlpha" type="matrix" values="0 0 0 0 0 0 0 0 0 0 0 0 0 0 0 0 0 0 127 0" result="hardAlpha"/>
<feOffset dx="2" dy="2"/>
<feGaussianBlur stdDeviation="2"/>
<feComposite in2="hardAlpha" operator="arithmetic" k2="-1" k3="1"/>
<feColorMatrix type="matrix" values="0 0 0 0 1 0 0 0 0 1 0 0 0 0 1 0 0 0 0.1 0"/>
<feBlend mode="normal" in2="shape" result="effect2_innerShadow_1145_2942"/>
</filter>
</defs>
</svg>
