<svg width="16" height="22" viewBox="0 0 16 22" fill="none" xmlns="http://www.w3.org/2000/svg">
    <path d="M7.93945 0.599854C7.36185 0.599854 4.35865 0.700916 1.93945 2.68892C1.90665 2.71532 1.87595 2.74747 1.85195 2.78267C1.27835 3.62347 1.02055 5.52265 0.826953 7.44985C0.824553 7.47225 0.822303 7.49468 0.820703 7.51548C0.555903 7.62748 0.330078 7.89168 0.330078 8.24048L0.466016 12.1952C0.466016 12.5136 0.709028 12.8636 1.07383 12.9452C1.28743 13.9012 1.98474 16.9615 2.31914 17.6311C2.74474 18.4823 4.05758 20.3542 5.31758 21.0374C6.00798 21.383 7.59857 21.3999 7.90977 21.3999C8.28417 21.3999 10.1819 21.3815 10.7363 21.0327C11.9555 20.3967 13.3071 18.4724 13.7223 17.642C14.0615 17.006 14.6076 14.052 14.802 12.9624C15.1556 12.9432 15.5348 12.6348 15.5348 12.2124L15.6707 8.22642C15.6707 7.94402 15.48 7.63632 15.1832 7.51392C15.1784 7.45952 15.1732 7.40208 15.1676 7.34048C15.0596 6.06848 14.8572 3.69919 14.1316 2.76079C14.1108 2.73359 14.0869 2.71052 14.0613 2.68892C11.6421 0.700916 8.63737 0.599854 8.05977 0.599854L8.01289 0.601416L7.93945 0.599854ZM10.5895 3.1311C10.5895 3.1311 11.4087 3.28589 11.9895 3.74829C12.4047 4.16909 12.9035 4.79829 12.9035 4.79829L12.7785 9.8561L13.3176 11.4952C13.2416 11.7208 13.1107 12.5476 12.9035 12.842C12.6963 13.1356 11.3676 15.6999 11.3676 15.6999C11.3676 15.6999 10.8963 16.7329 11.1035 17.6577C11.2451 18.3185 11.1598 18.7905 11.1598 18.7905L10.7879 19.2124C10.7039 19.2964 10.5789 19.3374 10.4957 19.3374C10.4549 19.3374 10.4131 19.2952 10.3723 19.2952L9.62539 18.9577H6.63789L5.89102 19.2936C5.84942 19.336 5.80682 19.3374 5.76602 19.3374C5.64122 19.3374 5.55939 19.294 5.47539 19.2108L5.10195 18.7905C5.10195 18.7905 4.99532 18.2256 5.07852 17.5952C5.28572 16.6704 4.89414 15.6999 4.89414 15.6999C4.89414 15.6999 3.35995 13.1356 3.15195 12.842C2.94475 12.5892 2.64414 11.5983 2.64414 11.5983L3.35664 9.84985L3.2332 4.79829C3.2332 4.79829 3.64789 4.16829 4.18789 3.74829C4.68629 3.36989 5.60508 3.26548 5.60508 3.26548L6.11133 6.97798C6.11133 6.97798 6.2207 7.60255 6.2207 7.68735C6.2207 7.77135 6.73477 8.02954 6.73477 8.02954L9.43476 8.02642C9.43476 8.02642 9.95039 7.76979 9.95039 7.68579C9.95039 7.64419 10.0566 6.97642 10.0566 6.97642L10.5895 3.1311ZM12.3785 10.9842C12.351 10.9885 12.3201 10.9991 12.2863 11.0217C11.8351 11.1569 10.573 11.7438 9.30976 11.8342C8.99376 11.9702 9.21914 12.1061 9.21914 12.1061C9.21914 12.1061 9.48968 12.5566 9.58008 12.6014C9.67048 12.7374 9.85039 12.7374 9.85039 12.7374L11.2941 12.6467C11.2941 12.6467 11.5657 12.6476 11.7457 12.5124C11.9713 12.422 12.738 11.9239 13.0988 11.6983C13.234 11.6087 13.0988 11.4733 13.0988 11.4733L12.5129 11.0217C12.5129 11.0217 12.461 10.9715 12.3785 10.9842ZM3.57539 11.0295C3.49293 11.0168 3.44258 11.0686 3.44258 11.0686L2.85664 11.5186C2.85664 11.5186 2.72144 11.6548 2.85664 11.7452C3.21744 11.9708 3.98417 12.4657 4.20977 12.5561C4.39057 12.6913 4.66133 12.692 4.66133 12.692L6.10508 12.7827C6.10508 12.7827 6.3303 12.7822 6.4207 12.6014C6.5111 12.5566 6.78164 12.1061 6.78164 12.1061C6.78164 12.1061 7.0073 11.9699 6.6457 11.8795C5.3825 11.7891 4.12034 11.2038 3.66914 11.0686C3.63534 11.046 3.60288 11.0338 3.57539 11.0295Z" fill="#4453AD"/>
</svg>
