<svg width="20" height="20" viewBox="0 0 20 20" fill="none" xmlns="http://www.w3.org/2000/svg">
<path d="M15.8333 2.5H4.16667C3.2475 2.5 2.5 3.2475 2.5 4.16667V15.8333C2.5 16.7525 3.2475 17.5 4.16667 17.5H15.8333C16.7525 17.5 17.5 16.7525 17.5 15.8333V4.16667C17.5 3.2475 16.7525 2.5 15.8333 2.5ZM4.16667 15.8333V4.16667H15.8333L15.835 15.8333H4.16667Z" fill="#8F86FF"/>
<path d="M6.66699 7.91666C7.35735 7.91666 7.91699 7.35701 7.91699 6.66666C7.91699 5.9763 7.35735 5.41666 6.66699 5.41666C5.97664 5.41666 5.41699 5.9763 5.41699 6.66666C5.41699 7.35701 5.97664 7.91666 6.66699 7.91666Z" fill="#8F86FF"/>
<path d="M10 11.25C10.6904 11.25 11.25 10.6904 11.25 10C11.25 9.30964 10.6904 8.75 10 8.75C9.30964 8.75 8.75 9.30964 8.75 10C8.75 10.6904 9.30964 11.25 10 11.25Z" fill="#8F86FF"/>
<path d="M13.333 14.5833C14.0234 14.5833 14.583 14.0237 14.583 13.3333C14.583 12.643 14.0234 12.0833 13.333 12.0833C12.6427 12.0833 12.083 12.643 12.083 13.3333C12.083 14.0237 12.6427 14.5833 13.333 14.5833Z" fill="#8F86FF"/>
</svg>
