<svg width="26" height="27" viewBox="0 0 26 27" fill="none" xmlns="http://www.w3.org/2000/svg">
<path d="M9.71792 9.31674L8.13634 7.82202C8.32056 7.48734 8.43451 7.1084 8.43451 6.69959C8.43451 5.40402 7.38511 4.35461 6.08898 4.35461C4.79285 4.35461 3.74179 5.40347 3.74179 6.69959C3.74179 7.99572 4.79285 9.04568 6.08898 9.04568C6.54592 9.04568 6.96856 8.90959 7.32924 8.68389L8.9086 10.177C9.14758 9.86108 9.41698 9.57176 9.71792 9.31674Z" fill="white" fill-opacity="0.6"/>
<path d="M16.4077 9.1298L18.5092 5.59324C18.7161 5.65244 18.9308 5.69503 19.1559 5.69503C20.4543 5.69503 21.5037 4.64507 21.5037 3.34895C21.5037 2.05337 20.4543 1.00397 19.1559 1.00397C17.8598 1.00397 16.8109 2.05282 16.8109 3.34895C16.8109 3.99231 17.0704 4.57371 17.4897 4.99801L15.3948 8.52461C15.7549 8.6878 16.0946 8.89137 16.4077 9.1298Z" fill="white" fill-opacity="0.6"/>
<path d="M23.6556 12.0905C22.6466 12.0905 21.7919 12.7316 21.4605 13.6256L18.5408 13.3373C18.5408 13.3595 18.5441 13.3805 18.5441 13.4021C18.5441 13.7827 18.5021 14.1544 18.4263 14.5134L21.3449 14.8016C21.5214 15.9213 22.4856 16.7799 23.6556 16.7799C24.9512 16.7799 26 15.731 26 14.4354C26 13.1404 24.9512 12.0905 23.6556 12.0905Z" fill="white" fill-opacity="0.6"/>
<path d="M15.5984 21.3133L14.9456 18.4611C14.5772 18.5894 14.1938 18.6812 13.7938 18.7271L14.4477 21.58C13.6981 21.9722 13.1809 22.7472 13.1809 23.6522C13.1809 24.9478 14.2298 25.9961 15.5281 25.9961C16.8237 25.9961 17.8725 24.9472 17.8725 23.6522C17.8742 22.3804 16.8607 21.3509 15.5984 21.3133Z" fill="white" fill-opacity="0.6"/>
<path d="M7.94217 14.5345L4.3077 15.7521C3.88838 15.1115 3.16647 14.6866 2.34498 14.6866C1.04885 14.6866 0 15.736 0 17.0316C0 18.3288 1.04885 19.3782 2.34498 19.3782C3.64 19.3782 4.69162 18.3288 4.69162 17.0316C4.69162 16.9774 4.68 16.9276 4.67557 16.8745L8.32166 15.6536C8.15736 15.299 8.02681 14.9256 7.94217 14.5345Z" fill="white" fill-opacity="0.6"/>
<path d="M13.1826 17.4243C15.404 17.4243 17.2048 15.6235 17.2048 13.4021C17.2048 11.1806 15.404 9.37982 13.1826 9.37982C10.9611 9.37982 9.16031 11.1806 9.16031 13.4021C9.16031 15.6235 10.9611 17.4243 13.1826 17.4243Z" fill="white" fill-opacity="0.6"/>
</svg>
