<svg width="20" height="20" viewBox="0 0 20 20" fill="none" xmlns="http://www.w3.org/2000/svg">
    <path d="M9.5374 18.1933C9.67434 18.2847 9.83527 18.3335 9.9999 18.3335C10.1645 18.3335 10.3255 18.2847 10.4624 18.1933L17.9624 13.1933C18.0569 13.1306 18.1375 13.0492 18.1994 12.9542C18.2612 12.8592 18.303 12.7525 18.3221 12.6407C18.3412 12.529 18.3373 12.4145 18.3105 12.3043C18.2838 12.1941 18.2348 12.0906 18.1666 12L10.6666 2.00001C10.3524 1.58001 9.6474 1.58001 9.33323 2.00001L1.83323 12C1.76523 12.0907 1.71643 12.1942 1.68982 12.3044C1.6632 12.4145 1.65933 12.5289 1.67844 12.6406C1.69755 12.7523 1.73924 12.8589 1.80096 12.954C1.86268 13.049 1.94313 13.1305 2.0374 13.1933L9.5374 18.1933ZM10.8332 15.9425V5.00001L16.3041 12.295L10.8332 15.9425ZM9.16656 5.00001V15.9425L3.69573 12.295L9.16656 5.00001Z" fill="#4453AD"/>
</svg>
