<svg width="18" height="18" viewBox="0 0 18 18" fill="none" xmlns="http://www.w3.org/2000/svg">
<path fill-rule="evenodd" clip-rule="evenodd" d="M9 9V7L15 1L17 3L11 9H9Z" stroke="#4453AD" stroke-width="2" stroke-linecap="round" stroke-linejoin="round"/>
<path d="M5.8 9H3C2.46957 9 1.96086 9.21071 1.58579 9.58579C1.21071 9.96086 1 10.4696 1 11C1 11.5304 1.21071 12.0391 1.58579 12.4142C1.96086 12.7893 2.46957 13 3 13H15C15.5304 13 16.0391 13.2107 16.4142 13.5858C16.7893 13.9609 17 14.4696 17 15C17 15.5304 16.7893 16.0391 16.4142 16.4142C16.0391 16.7893 15.5304 17 15 17H6.6" stroke="#4453AD" stroke-width="2" stroke-linecap="round" stroke-linejoin="round"/>
</svg>
