<svg width="26" height="26" viewBox="0 0 26 26" fill="none" xmlns="http://www.w3.org/2000/svg">
<path d="M4.33332 1.08331H21.6667C22.2413 1.08331 22.7924 1.36231 23.1987 1.85894C23.6051 2.35556 23.8333 3.02913 23.8333 3.73146V11.6759C23.8333 15.1876 22.692 18.5554 20.6603 21.0385C18.6287 23.5216 15.8732 24.9166 13 24.9166C11.5773 24.9166 10.1686 24.5742 8.85425 23.9088C7.53989 23.2433 6.34563 22.268 5.33967 21.0385C3.30802 18.5554 2.16666 15.1876 2.16666 11.6759V3.73146C2.16666 3.02913 2.39493 2.35556 2.80126 1.85894C3.20759 1.36231 3.75869 1.08331 4.33332 1.08331V1.08331Z" stroke="white" stroke-opacity="0.6" stroke-width="2" stroke-linecap="round" stroke-linejoin="round"/>
<path d="M9.75 10.8333L13 15.1666L16.25 10.8333" stroke="white" stroke-opacity="0.6" stroke-width="2" stroke-linecap="round" stroke-linejoin="round"/>
</svg>
