<svg width="16" height="16" viewBox="0 0 16 16" fill="none" xmlns="http://www.w3.org/2000/svg">
<path d="M0.00131548 5.44819C-0.0178512 5.79069 0.173815 6.10985 0.485482 6.25319L6.73882 9.12152L9.60715 15.374C9.74382 15.6707 10.0405 15.8599 10.3646 15.8599L10.4121 15.8582C10.5794 15.8488 10.7399 15.7893 10.8728 15.6873C11.0057 15.5853 11.1048 15.4456 11.1571 15.2865L15.8196 1.09319C15.9171 0.794852 15.8388 0.465685 15.6171 0.243185C15.3955 0.0206854 15.0672 -0.055148 14.7671 0.0406854L0.572982 4.70319C0.413856 4.75552 0.274195 4.8546 0.172219 4.9875C0.0702436 5.12039 0.010686 5.28094 0.00131548 5.44819ZM13.7213 2.13902L10.2363 12.7474L8.12465 8.14569C8.04159 7.96426 7.89607 7.81874 7.71465 7.73569L3.11132 5.62402L13.7213 2.13902Z" fill="#4453AD"/>
</svg>
