<svg width="28" height="28" viewBox="0 0 28 28" fill="none" xmlns="http://www.w3.org/2000/svg">
<g clip-path="url(#clip0_620:1828)">
<g filter="url(#filter0_d_620:1828)">
<rect width="28" height="28" rx="10" fill="white"/>
</g>
<path d="M5.66831 12.0251C5.64914 12.3676 5.84081 12.6868 6.15247 12.8301L12.4058 15.6984L15.2741 21.9509C15.4108 22.2476 15.7075 22.4368 16.0316 22.4368L16.0791 22.4351C16.2464 22.4257 16.4069 22.3662 16.5398 22.2642C16.6727 22.1622 16.7718 22.0226 16.8241 21.8634L21.4866 7.67009C21.5841 7.37176 21.5058 7.04259 21.2841 6.82009C21.0625 6.59759 20.7341 6.52176 20.4341 6.61759L6.23997 11.2801C6.08085 11.3324 5.94119 11.4315 5.83921 11.5644C5.73724 11.6973 5.67768 11.8578 5.66831 12.0251ZM19.3883 8.71592L15.9033 19.3243L13.7916 14.7226C13.7086 14.5412 13.5631 14.3956 13.3816 14.3126L8.77831 12.2009L19.3883 8.71592Z" fill="#4453AD"/>
</g>
<defs>
<filter id="filter0_d_620:1828" x="0" y="0" width="42" height="56" filterUnits="userSpaceOnUse" color-interpolation-filters="sRGB">
<feFlood flood-opacity="0" result="BackgroundImageFix"/>
<feColorMatrix in="SourceAlpha" type="matrix" values="0 0 0 0 0 0 0 0 0 0 0 0 0 0 0 0 0 0 127 0" result="hardAlpha"/>
<feMorphology radius="15" operator="erode" in="SourceAlpha" result="effect1_dropShadow_620:1828"/>
<feOffset dx="7" dy="21"/>
<feGaussianBlur stdDeviation="11"/>
<feComposite in2="hardAlpha" operator="out"/>
<feColorMatrix type="matrix" values="0 0 0 0 0.198594 0 0 0 0 0.307254 0 0 0 0 0.5125 0 0 0 0.17 0"/>
<feBlend mode="normal" in2="BackgroundImageFix" result="effect1_dropShadow_620:1828"/>
<feBlend mode="normal" in="SourceGraphic" in2="effect1_dropShadow_620:1828" result="shape"/>
</filter>
<clipPath id="clip0_620:1828">
<rect width="28" height="28" fill="white"/>
</clipPath>
</defs>
</svg>
