<svg width="21" height="21" viewBox="0 0 21 21" fill="none" xmlns="http://www.w3.org/2000/svg">
<path d="M16.625 2.625H4.375C3.40987 2.625 2.625 3.40987 2.625 4.375V16.625C2.625 17.5901 3.40987 18.375 4.375 18.375H16.625C17.5901 18.375 18.375 17.5901 18.375 16.625V4.375C18.375 3.40987 17.5901 2.625 16.625 2.625ZM4.375 16.625V4.375H16.625L16.6268 16.625H4.375Z" fill="#4453AD"/>
<path d="M10.5 11.8125C11.2249 11.8125 11.8125 11.2249 11.8125 10.5C11.8125 9.77513 11.2249 9.1875 10.5 9.1875C9.77513 9.1875 9.1875 9.77513 9.1875 10.5C9.1875 11.2249 9.77513 11.8125 10.5 11.8125Z" fill="#4453AD"/>
</svg>
