<svg width="20" height="20" viewBox="0 0 20 20" fill="none" xmlns="http://www.w3.org/2000/svg">
    <path d="M10.0004 0.399902C7.17694 0.399902 4.95843 1.21021 3.72383 3.17334C3.72383 3.17386 3.72383 3.17438 3.72383 3.1749C3.13266 4.1153 2.93475 5.2134 2.84727 6.08896C2.77109 6.85135 2.80124 7.29979 2.8082 7.44678L2.11445 9.52803C1.6519 9.79679 0.400391 10.6096 0.400391 12.3999C0.400391 14.1199 1.53284 14.9098 2.04727 15.2218C2.05823 15.4147 2.0463 15.5076 2.11602 15.8562C2.23211 16.4366 2.4462 17.177 3.03477 17.7655C4.05783 18.7886 5.8806 19.5999 7.74727 19.5999C8.6534 19.5999 9.30037 19.2283 9.77227 18.7999H10.2285C10.7004 19.2283 11.3474 19.5999 12.2535 19.5999C14.1202 19.5999 15.9429 18.7886 16.966 17.7655C17.5546 17.177 17.7687 16.4366 17.8848 15.8562C17.9545 15.5076 17.9425 15.4147 17.9535 15.2218C18.4679 14.9098 19.6004 14.1199 19.6004 12.3999C19.6004 10.6096 18.3489 9.79679 17.8863 9.52803L17.1926 7.44678C17.1995 7.29979 17.2297 6.85135 17.1535 6.08896C17.066 5.2134 16.8681 4.1153 16.277 3.1749C16.277 3.17438 16.277 3.17386 16.277 3.17334C15.0423 1.21021 12.8238 0.399902 10.0004 0.399902ZM10.0004 1.9999C12.5433 1.9999 14.0272 2.6008 14.9238 4.02646C15.1143 4.32989 15.1546 4.78501 15.2613 5.1999H4.73945C4.84618 4.78501 4.88646 4.32989 5.07695 4.02646C5.97355 2.6008 7.45744 1.9999 10.0004 1.9999ZM4.42227 6.7999H5.14258C5.03126 6.89293 4.95508 7.00829 4.95508 7.17022C4.95508 7.97021 5.20039 9.1999 6.00039 9.1999C6.54359 9.1999 9.20039 7.64399 9.20039 7.02959C9.20039 6.94864 9.08348 6.87167 8.91758 6.7999H11.0832C10.9173 6.87167 10.8004 6.94864 10.8004 7.02959C10.8004 7.64399 13.4572 9.1999 14.0004 9.1999C14.8004 9.1999 15.0457 7.97021 15.0457 7.17022C15.0457 7.00829 14.9695 6.89293 14.8582 6.7999H15.5785C15.5832 7.09944 15.602 7.55147 15.602 7.55147C15.5956 7.65356 15.6088 7.75593 15.641 7.85303L16.441 10.253C16.4743 10.3527 16.5269 10.4449 16.5958 10.5242C16.6647 10.6036 16.7485 10.6686 16.8426 10.7155C16.8426 10.7155 17.056 10.8454 17.291 11.0483C15.6825 11.5866 14.9113 12.7952 14.9113 12.7952C14.8519 12.8859 14.8115 12.9876 14.7926 13.0944C14.7737 13.2011 14.7767 13.3105 14.8014 13.4161C14.8261 13.5216 14.872 13.621 14.9362 13.7083C15.0005 13.7956 15.0818 13.8689 15.1753 13.9237C15.2687 13.9786 15.3724 14.014 15.4799 14.0276C15.5874 14.0412 15.6966 14.0328 15.8008 14.003C15.905 13.9731 16.002 13.9224 16.086 13.854C16.17 13.7855 16.2392 13.7006 16.2895 13.6046C16.2895 13.6046 16.7307 12.7787 17.9895 12.4858C17.9274 13.4973 16.8426 14.0843 16.8426 14.0843C16.7097 14.1507 16.5979 14.2529 16.5198 14.3793C16.4417 14.5057 16.4004 14.6513 16.4004 14.7999C16.4004 14.7999 16.3999 15.1241 16.316 15.5437C16.2321 15.9632 16.0462 16.4228 15.8348 16.6343C15.2688 17.2002 13.6517 17.9661 12.3316 17.9952L12.0988 17.5968C11.9887 17.408 11.8076 17.2779 11.6004 17.2265V16.3999C11.6004 16.0332 11.348 15.7365 11.0113 15.6421L10.952 15.4062C10.8632 15.0502 10.5426 14.7999 10.1754 14.7999H9.82539C9.45819 14.7999 9.13763 15.0502 9.04883 15.4062L8.98945 15.6421C8.65274 15.7365 8.40039 16.0332 8.40039 16.3999V17.2265C8.19319 17.2779 8.01203 17.408 7.90195 17.5968L7.66914 17.9952C6.34909 17.9661 4.73196 17.2002 4.16602 16.6343C3.95458 16.4228 3.76867 15.9632 3.68477 15.5437C3.60086 15.1241 3.60039 14.7999 3.60039 14.7999C3.6004 14.6513 3.55904 14.5057 3.48094 14.3793C3.40284 14.2529 3.29109 14.1507 3.1582 14.0843C3.1582 14.0843 2.07339 13.4973 2.01133 12.4858C3.27009 12.7787 3.71133 13.6046 3.71133 13.6046C3.76155 13.7006 3.83076 13.7855 3.91477 13.854C3.99877 13.9224 4.09581 13.9731 4.2 14.003C4.3042 14.0328 4.41337 14.0412 4.52089 14.0276C4.62841 14.014 4.73204 13.9786 4.8255 13.9237C4.91896 13.8689 5.00029 13.7956 5.06456 13.7083C5.12883 13.621 5.17469 13.5216 5.19938 13.4161C5.22406 13.3105 5.22705 13.2011 5.20815 13.0944C5.18925 12.9876 5.14887 12.8859 5.08945 12.7952C5.08945 12.7952 4.31825 11.5866 2.70977 11.0483C2.94481 10.8454 3.1582 10.7155 3.1582 10.7155C3.25223 10.6686 3.33609 10.6036 3.40499 10.5242C3.4739 10.4449 3.52649 10.3527 3.55977 10.253L4.35977 7.85303C4.39194 7.75593 4.4052 7.65356 4.39883 7.55147C4.39883 7.55147 4.41758 7.09944 4.42227 6.7999ZM10.0004 9.9999C9.20199 10.0007 8.64287 10.386 8.19727 10.7812C7.74367 11.1644 7.40883 11.5805 7.14883 11.6421L7.08789 11.6562C6.88709 11.7042 6.76333 11.9069 6.81133 12.1077C6.84973 12.2709 6.98963 12.3825 7.14883 12.3937C7.55043 12.4217 7.8921 12.2584 8.1457 12.128C8.4049 11.9912 8.92035 11.6007 10.002 11.5999C11.0836 11.5999 11.599 11.9912 11.8582 12.128C12.1126 12.2584 12.4535 12.4217 12.8551 12.3937C13.0143 12.3825 13.1542 12.2709 13.1926 12.1077C13.2398 11.9061 13.1161 11.7034 12.9145 11.6562L12.8551 11.6421C12.5951 11.5805 12.2587 11.1644 11.8051 10.7812C11.3595 10.386 10.8019 10.0015 10.0035 9.9999H10.002H10.0004ZM6.00039 14.7999C5.78822 14.7999 5.58473 14.8842 5.43471 15.0342C5.28468 15.1842 5.20039 15.3877 5.20039 15.5999C5.20039 15.8121 5.28468 16.0156 5.43471 16.1656C5.58473 16.3156 5.78822 16.3999 6.00039 16.3999C6.21256 16.3999 6.41605 16.3156 6.56608 16.1656C6.7161 16.0156 6.80039 15.8121 6.80039 15.5999C6.80039 15.3877 6.7161 15.1842 6.56608 15.0342C6.41605 14.8842 6.21256 14.7999 6.00039 14.7999ZM14.0004 14.7999C13.7882 14.7999 13.5847 14.8842 13.4347 15.0342C13.2847 15.1842 13.2004 15.3877 13.2004 15.5999C13.2004 15.8121 13.2847 16.0156 13.4347 16.1656C13.5847 16.3156 13.7882 16.3999 14.0004 16.3999C14.2126 16.3999 14.416 16.3156 14.5661 16.1656C14.7161 16.0156 14.8004 15.8121 14.8004 15.5999C14.8004 15.3877 14.7161 15.1842 14.5661 15.0342C14.416 14.8842 14.2126 14.7999 14.0004 14.7999Z" fill="#4453AD"/>
</svg>
