<svg width="153" height="40" viewBox="0 0 153 40" fill="none" xmlns="http://www.w3.org/2000/svg">
    <g filter="url(#filter0_i_390_2871)">
        <rect width="153" height="40" rx="7" fill="white"/>
    </g>
    <path d="M18.5374 27.1933C18.6743 27.2847 18.8353 27.3335 18.9999 27.3335C19.1645 27.3335 19.3255 27.2847 19.4624 27.1933L26.9624 22.1933C27.0569 22.1306 27.1375 22.0492 27.1994 21.9542C27.2612 21.8592 27.303 21.7525 27.3221 21.6407C27.3412 21.529 27.3373 21.4145 27.3105 21.3043C27.2838 21.1941 27.2348 21.0906 27.1666 21L19.6666 11C19.3524 10.58 18.6474 10.58 18.3332 11L10.8332 21C10.7652 21.0907 10.7164 21.1942 10.6898 21.3044C10.6632 21.4145 10.6593 21.5289 10.6784 21.6406C10.6975 21.7523 10.7392 21.8589 10.801 21.954C10.8627 22.049 10.9431 22.1305 11.0374 22.1933L18.5374 27.1933ZM19.8332 24.9425V14L25.3041 21.295L19.8332 24.9425ZM18.1666 14V24.9425L12.6957 21.295L18.1666 14Z" fill="#4453AD"/>
    <path d="M126 18L130.5 22L135 18" stroke="#1E1E20" stroke-width="2" stroke-linecap="round" stroke-linejoin="round"/>
    <path d="M49.1705 25L43.9705 17.288H43.9065V25H42.1785V13.992H44.0505L49.1065 21.432H49.1705V13.992H50.8985V25H49.1705ZM60.3468 21.528H55.0188C55.0188 22.1787 55.0615 22.6427 55.1468 22.92C55.2428 23.1867 55.4561 23.3733 55.7868 23.48C56.1281 23.5867 56.6988 23.64 57.4988 23.64C58.2028 23.64 59.0455 23.5867 60.0268 23.48V24.888C59.6748 24.9627 59.2268 25.0213 58.6828 25.064C58.1388 25.1067 57.6108 25.128 57.0988 25.128C55.9575 25.128 55.1201 25 54.5868 24.744C54.0535 24.4773 53.7068 24.0613 53.5468 23.496C53.3868 22.9307 53.3068 22.0773 53.3068 20.936C53.3068 19.848 53.3868 19.016 53.5468 18.44C53.7068 17.864 54.0481 17.432 54.5708 17.144C55.0935 16.856 55.8988 16.712 56.9868 16.712C58.0321 16.712 58.7895 16.856 59.2588 17.144C59.7388 17.432 60.0375 17.8533 60.1548 18.408C60.2828 18.952 60.3468 19.7947 60.3468 20.936V21.528ZM56.9388 18.2C56.3628 18.2 55.9415 18.2587 55.6748 18.376C55.4188 18.4827 55.2481 18.6747 55.1628 18.952C55.0775 19.2293 55.0295 19.6773 55.0188 20.296H58.7308V20.264C58.7308 19.656 58.6775 19.208 58.5708 18.92C58.4641 18.632 58.2881 18.44 58.0428 18.344C57.8081 18.248 57.4401 18.2 56.9388 18.2ZM63.2222 25V18.344H61.5902V16.84H63.2222V14.472H64.9182V16.84H66.8222V18.344H64.9182V25H63.2222ZM75.4942 25L73.8622 19.784H73.7502L72.1502 25H70.1182L67.6542 16.84H69.3982L71.1262 22.952H71.2542L73.0462 16.84H74.6302L76.4382 22.952H76.5662L78.2782 16.84H79.9902L77.5102 25H75.4942ZM84.877 25.128C83.725 25.128 82.893 25.0107 82.381 24.776C81.8797 24.5307 81.5597 24.136 81.421 23.592C81.2824 23.0373 81.213 22.1413 81.213 20.904C81.213 19.6773 81.2824 18.792 81.421 18.248C81.5597 17.6933 81.8797 17.2987 82.381 17.064C82.893 16.8293 83.725 16.712 84.877 16.712C86.029 16.712 86.8557 16.8293 87.357 17.064C87.869 17.2987 88.1944 17.6933 88.333 18.248C88.4717 18.792 88.541 19.6773 88.541 20.904C88.541 22.1413 88.4717 23.0373 88.333 23.592C88.1944 24.136 87.869 24.5307 87.357 24.776C86.8557 25.0107 86.029 25.128 84.877 25.128ZM84.877 23.624C85.549 23.624 86.013 23.5653 86.269 23.448C86.525 23.32 86.6797 23.0907 86.733 22.76C86.797 22.4293 86.829 21.8107 86.829 20.904C86.829 19.9973 86.797 19.384 86.733 19.064C86.6797 18.7333 86.525 18.5093 86.269 18.392C86.013 18.2747 85.549 18.216 84.877 18.216C84.205 18.216 83.741 18.2747 83.485 18.392C83.229 18.5093 83.069 18.7333 83.005 19.064C82.9517 19.384 82.925 19.9973 82.925 20.904C82.925 21.8107 82.9517 22.4293 83.005 22.76C83.069 23.0907 83.229 23.32 83.485 23.448C83.741 23.5653 84.205 23.624 84.877 23.624ZM90.7518 16.84H92.3038L92.3678 18.296H92.4958C92.6878 17.6987 92.9971 17.288 93.4238 17.064C93.8611 16.8293 94.4425 16.712 95.1678 16.712V18.472C94.4425 18.472 93.8825 18.5787 93.4878 18.792C93.1038 18.9947 92.8318 19.32 92.6718 19.768C92.5225 20.2053 92.4478 20.8187 92.4478 21.608V25H90.7518V16.84ZM101.982 25L99.4055 21.656H98.5415V25H96.8455V13.112H98.5415V20.136H99.4055L102.014 16.84H103.886L100.766 20.776L103.934 25H101.982Z" fill="#1E1E20"/>
    <defs>
        <filter id="filter0_i_390_2871" x="0" y="0" width="153" height="44" filterUnits="userSpaceOnUse" color-interpolation-filters="sRGB">
            <feFlood flood-opacity="0" result="BackgroundImageFix"/>
            <feBlend mode="normal" in="SourceGraphic" in2="BackgroundImageFix" result="shape"/>
            <feColorMatrix in="SourceAlpha" type="matrix" values="0 0 0 0 0 0 0 0 0 0 0 0 0 0 0 0 0 0 127 0" result="hardAlpha"/>
            <feMorphology radius="6" operator="dilate" in="SourceAlpha" result="effect1_innerShadow_390_2871"/>
            <feOffset dy="5"/>
            <feGaussianBlur stdDeviation="5"/>
            <feComposite in2="hardAlpha" operator="arithmetic" k2="-1" k3="1"/>
            <feColorMatrix type="matrix" values="0 0 0 0 0.198594 0 0 0 0 0.307254 0 0 0 0 0.5125 0 0 0 0.12 0"/>
            <feBlend mode="normal" in2="shape" result="effect1_innerShadow_390_2871"/>
        </filter>
    </defs>
</svg>
