<svg width="32" height="32" viewBox="0 0 32 32" fill="none" xmlns="http://www.w3.org/2000/svg">
<circle cx="16" cy="16" r="16" fill="url(#paint0_linear)"/>
<g clip-path="url(#clip0)">
<path d="M13.3296 21.3033L11.9357 19.9094H19.7548L19.755 19.9094C20.9906 19.9079 21.9919 18.9066 21.9934 17.671V17.6708V16V15.85H21.8434H21.008H20.858V16V17.6708C20.858 18.28 20.364 18.774 19.7548 18.774H11.9357L13.3296 17.3801L13.4356 17.274L13.3296 17.168L12.7389 16.5773L12.6328 16.4712L12.5268 16.5773L10.1638 18.9403L10.1637 18.9403C9.94214 19.1621 9.94214 19.5213 10.1637 19.7431L10.1638 19.7431L12.5268 22.1061L12.6328 22.2122L12.7389 22.1061L13.3296 21.5154L13.4356 21.4094L13.3296 21.3033Z" fill="white" stroke="white" stroke-width="0.3"/>
<path d="M18.6613 10.6967L20.0551 12.0906H12.236L12.2358 12.0906C11.0002 12.092 9.99888 13.0934 9.99746 14.329V14.3292V16V16.15H10.1475H10.9829H11.1329V16V14.3292C11.1329 13.7199 11.6267 13.226 12.236 13.226H20.0551L18.6613 14.6199L18.5552 14.726L18.6613 14.832L19.2519 15.4227L19.358 15.5288L19.4641 15.4227L21.8271 13.0597L21.8271 13.0597C22.0487 12.8379 22.0487 12.4787 21.8271 12.257L21.8271 12.2569L19.4641 9.89393L19.358 9.78787L19.2519 9.89393L18.6613 10.4846L18.5552 10.5907L18.6613 10.6967Z" fill="white" stroke="white" stroke-width="0.3"/>
</g>
<defs>
<linearGradient id="paint0_linear" x1="-6.40575e-08" y1="14.6207" x2="32.0022" y2="14.674" gradientUnits="userSpaceOnUse">
<stop offset="0.00355593" stop-color="#3B2959"/>
<stop offset="0.417456" stop-color="#291D41"/>
<stop offset="0.98296" stop-color="#1D282F"/>
</linearGradient>
<clipPath id="clip0">
<rect width="12" height="12" fill="white" transform="translate(10 10)"/>
</clipPath>
</defs>
</svg>
