<svg width="26" height="27" viewBox="0 0 26 27" fill="none" xmlns="http://www.w3.org/2000/svg">
<g clip-path="url(#clip0)">
<path d="M11.4042 15.4861H10.3033V14.385C10.3033 13.9642 9.96217 13.6232 9.54146 13.6232C9.12075 13.6232 8.77967 13.9642 8.77967 14.385V15.4861H7.67863C7.25792 15.4861 6.91684 15.8272 6.91684 16.2479V19.9734C6.91684 20.3941 7.25792 20.7352 7.67863 20.7352H8.77967V21.8984C8.77967 22.3191 9.12075 22.6602 9.54146 22.6602C9.96217 22.6602 10.3033 22.3191 10.3033 21.8984V20.7352H11.4042C11.825 20.7352 12.166 20.3941 12.166 19.9734V16.2479C12.166 15.8272 11.825 15.4861 11.4042 15.4861Z" fill="white" fill-opacity="0.6"/>
<path d="M18.3212 11.7603H17.2203V10.6592C17.2203 10.2385 16.8792 9.8974 16.4585 9.8974C16.0377 9.8974 15.6967 10.2385 15.6967 10.6592V11.7603H14.5956C14.1749 11.7603 13.8338 12.1014 13.8338 12.5221V16.2475C13.8338 16.6683 14.1749 17.0093 14.5956 17.0093H15.6967V21.8984C15.6967 22.3191 16.0377 22.6602 16.4585 22.6602C16.8792 22.6602 17.2203 22.3191 17.2203 21.8984V17.0093H18.3212C18.742 17.0093 19.083 16.6683 19.083 16.2475V12.5221C19.083 12.1014 18.742 11.7603 18.3212 11.7603Z" fill="white" fill-opacity="0.6"/>
<path d="M25.2382 6.20278H24.1372V5.10164C24.1372 4.68092 23.7961 4.33984 23.3754 4.33984C22.9547 4.33984 22.6136 4.68092 22.6136 5.10164V6.20273H21.5126C21.0919 6.20273 20.7508 6.54381 20.7508 6.96452V12.522C20.7508 12.9427 21.0919 13.2838 21.5126 13.2838H22.6136V16.3095C22.6136 16.7302 22.9547 17.0713 23.3754 17.0713C23.7961 17.0713 24.1372 16.7302 24.1372 16.3095V13.2838H25.2382C25.6589 13.2838 26 12.9427 26 12.522V6.96457C26 6.54386 25.6589 6.20278 25.2382 6.20278Z" fill="white" fill-opacity="0.6"/>
<path d="M4.48736 9.83638H3.38642V5.10261C3.38642 4.6819 3.04534 4.34082 2.62463 4.34082C2.20391 4.34082 1.86283 4.6819 1.86283 5.10261V9.83638H0.761792C0.34108 9.83638 0 10.1775 0 10.5982V16.3105C0 16.7312 0.34108 17.0723 0.761792 17.0723H1.86283V18.1734C1.86283 18.5941 2.20391 18.9352 2.62463 18.9352C3.04534 18.9352 3.38642 18.5941 3.38642 18.1734V17.0723H4.48741C4.90812 17.0723 5.2492 16.7312 5.2492 16.3105V10.5982C5.24915 10.1775 4.90812 9.83638 4.48736 9.83638Z" fill="white" fill-opacity="0.6"/>
</g>
<defs>
<clipPath id="clip0">
<rect width="26" height="26" fill="white" transform="translate(0 0.5)"/>
</clipPath>
</defs>
</svg>
