<svg width="22" height="22" viewBox="0 0 22 22" fill="none" xmlns="http://www.w3.org/2000/svg">
    <path d="M8.2417 5.48595L14.5681 1.8335L16.6819 5.49512L8.2417 5.48595V5.48595Z" stroke="#1E1E20" stroke-width="2" stroke-linecap="round" stroke-linejoin="round"/>
    <path d="M1.8335 6.41667C1.8335 6.17355 1.93007 5.94039 2.10198 5.76849C2.27389 5.59658 2.50705 5.5 2.75016 5.5H19.2502C19.4933 5.5 19.7264 5.59658 19.8983 5.76849C20.0703 5.94039 20.1668 6.17355 20.1668 6.41667V19.25C20.1668 19.4931 20.0703 19.7263 19.8983 19.8982C19.7264 20.0701 19.4933 20.1667 19.2502 20.1667H2.75016C2.50705 20.1667 2.27389 20.0701 2.10198 19.8982C1.93007 19.7263 1.8335 19.4931 1.8335 19.25V6.41667Z" stroke="#1E1E20" stroke-width="2" stroke-linejoin="round"/>
    <path d="M16.1563 15.1253H20.1667V10.542H16.1563C14.8271 10.542 13.75 11.5682 13.75 12.8337C13.75 14.0991 14.8271 15.1253 16.1563 15.1253Z" stroke="#1E1E20" stroke-width="2" stroke-linejoin="round"/>
    <path d="M20.167 7.5625V18.5625" stroke="#1E1E20" stroke-width="2" stroke-linecap="round"/>
</svg>
